# xmcd CD database file
#
# Track frame offsets:
#	183
#	14860
#	29175
#	41570
#	54770
#	67303
#	80635
#	94908
#	108990
#	123480
#	136983
#	150000
#	164485
#	178445
#	194618
#	207150
#
# Disc length: 2933 seconds
#
# Revision: 6
# Processed by: cddbd v1.5PL3 Copyright (c) Steve Scherf et al.
# Submitted via: CDex 1.51
#
DISCID=ed0b7310
DTITLE=Django Reinhardt - Verve Jazz Masters 38
DYEAR=1994
DGENRE=Jazz
TTITLE0=Nuages [Django Reinhardt-Jacques Larue]
TTITLE1=Daphné [Django Reinhardt-Stéphane Grappelli]
TTITLE2=Souvenirs [Django Reinhardt-Stéphane Grappelli]
TTITLE3=Honeysuckle Rose [Thomas Wright ''Fats'' Waller-Andy Razaf]
TTITLE4=Please Be Kind [Sammy Cahn-Saul Chaplin]
TTITLE5=H. C. Q. Strut [Django Reinhardt-Stéphane Grappelli]
TTITLE6=Love's Melody (Mélodie au crépuscule) [Django Reinhardt]
TTITLE7=Sweet Georgia Brown [Ben Bernie-Maceo Pinkard-Kenneth Casey]
TTITLE8=The Man I Love [George and Ira Gershwin]
TTITLE9=Belleville [Django Reinhardt]
TTITLE10=Liza (All the Clouds'll Roll Away) [George and Ira Gershwin-Gus Kahn]
TTITLE11=Vous et moi [Robert Bosmans-Etienne Lefebvre]
TTITLE12=Djangology [Django Reinhardt]
TTITLE13=Anniversary Song [Losif Ivanovici-Saul Chaplin-Al Jolson]
TTITLE14=Swing 48 [Django Reinhardt]
TTITLE15=Night and Day [Cole Albert Porter]
EXTD=YEAR: 1994
EXTT0=
EXTT1=
EXTT2=
EXTT3=
EXTT4=
EXTT5=
EXTT6=
EXTT7=
EXTT8=
EXTT9=
EXTT10=
EXTT11=
EXTT12=
EXTT13=
EXTT14=
EXTT15=
PLAYORDER=
